HIERARCHY
ROOT Hips
{
	OFFSET 0.000000 0.000000 0.000000
	CHANNELS 6 Xposition Yposition Zposition Xrotation Yrotation Zrotation
	JOINT LeftUpLeg_virtual
	{
		OFFSET 0.000000 0.000000 0.000000
		CHANNELS 3 Xrotation Yrotation Zrotation
		JOINT LeftUpLeg
		{
			OFFSET 11.394100 -6.187798 -0.413800
			CHANNELS 3 Xrotation Yrotation Zrotation
			JOINT LeftLeg
			{
				OFFSET 0.430247 -32.302673 3.732800
				CHANNELS 3 Xrotation Yrotation Zrotation
				JOINT LeftFoot
				{
					OFFSET -0.430247 -48.264931 -6.423300
					CHANNELS 3 Xrotation Yrotation Zrotation
					JOINT LeftToeBase
					{
						OFFSET 4.230900 -16.068199 23.438400
						CHANNELS 3 Xrotation Yrotation Zrotation
						JOINT LeftToe_End
						{
							OFFSET 4.510700 0.695400 19.974600
							CHANNELS 3 Xrotation Yrotation Zrotation
							End Site
							{
								OFFSET 0 0 0
							}
						}
					}
				}
			}
		}
	}
	JOINT RightUpLeg_virtual
	{
		OFFSET 0.000000 0.000000 0.000000
		CHANNELS 3 Xrotation Yrotation Zrotation
		JOINT RightUpLeg
		{
			OFFSET -11.333700 -6.187798 -0.413800
			CHANNELS 3 Xrotation Yrotation Zrotation
			JOINT RightLeg
			{
				OFFSET -0.430392 -32.302628 3.733000
				CHANNELS 3 Xrotation Yrotation Zrotation
				JOINT RightFoot
				{
					OFFSET 0.430392 -48.264973 -6.423500
					CHANNELS 3 Xrotation Yrotation Zrotation
					JOINT RightToeBase
					{
						OFFSET -4.230900 -16.068199 23.438400
						CHANNELS 3 Xrotation Yrotation Zrotation
						JOINT RightToe_End
						{
							OFFSET -4.510700 0.695400 19.974600
							CHANNELS 3 Xrotation Yrotation Zrotation
							End Site
							{
								OFFSET 0 0 0
							}
						}
					}
				}
			}
		}
	}
	JOINT Spine_virtual
	{
		OFFSET 0.000000 0.000000 0.000000
		CHANNELS 3 Xrotation Yrotation Zrotation
		JOINT Spine
		{
			OFFSET -0.002400 12.777504 0.315300
			CHANNELS 3 Xrotation Yrotation Zrotation
			JOINT Spine1
			{
				OFFSET -0.002067 5.816869 0.032633
				CHANNELS 3 Xrotation Yrotation Zrotation
				JOINT Spine1_split
				{
					OFFSET -0.002067 5.816869 0.032633
					CHANNELS 3 Xrotation Yrotation Zrotation
					JOINT Spine2
					{
						OFFSET -0.002067 5.816869 0.032633
						CHANNELS 3 Xrotation Yrotation Zrotation
						JOINT Neck_virtual
						{
							OFFSET 0.000000 0.000000 0.000000
							CHANNELS 3 Xrotation Yrotation Zrotation
							JOINT Neck
							{
								OFFSET -0.003700 21.199493 -0.826900
								CHANNELS 3 Xrotation Yrotation Zrotation
								JOINT Head
								{
									OFFSET 0.000000 20.442200 4.834800
									CHANNELS 3 Xrotation Yrotation Zrotation
									JOINT HeadTop_End
									{
										OFFSET 0.000000 34.668396 4.968400
										CHANNELS 3 Xrotation Yrotation Zrotation
										End Site
										{
											OFFSET 0 0 0
										}
									}
								}
							}
						}
						JOINT LeftShoulder_virtual
						{
							OFFSET 0.000000 0.000000 0.000000
							CHANNELS 3 Xrotation Yrotation Zrotation
							JOINT LeftShoulder
							{
								OFFSET 3.288150 8.794197 -1.372250
								CHANNELS 3 Xrotation Yrotation Zrotation
								JOINT LeftShoulder_split
								{
									OFFSET 3.288150 8.794197 -1.372250
									CHANNELS 3 Xrotation Yrotation Zrotation
									JOINT LeftArm
									{
										OFFSET 11.953299 -2.279007 -0.146200
										CHANNELS 3 Xrotation Yrotation Zrotation
										JOINT LeftForeArm
										{
											OFFSET 18.448900 0.000000 0.000000
											CHANNELS 3 Xrotation Yrotation Zrotation
											JOINT LeftHand
											{
												OFFSET 29.527798 0.000000 0.000000
												CHANNELS 3 Xrotation Yrotation Zrotation
												End Site
												{
													OFFSET 0 0 0
												}
											}
										}
									}
								}
							}
						}
						JOINT RightShoulder_virtual
						{
							OFFSET 0.000000 0.000000 0.000000
							CHANNELS 3 Xrotation Yrotation Zrotation
							JOINT RightShoulder
							{
								OFFSET -3.249400 8.794197 -1.372250
								CHANNELS 3 Xrotation Yrotation Zrotation
								JOINT RightShoulder_split
								{
									OFFSET -3.249400 8.794197 -1.372250
									CHANNELS 3 Xrotation Yrotation Zrotation
									JOINT RightArm
									{
										OFFSET -11.953299 -2.279007 -0.146200
										CHANNELS 3 Xrotation Yrotation Zrotation
										JOINT RightForeArm
										{
											OFFSET -18.448900 0.000000 0.000000
											CHANNELS 3 Xrotation Yrotation Zrotation
											JOINT RightHand
											{
												OFFSET -29.527802 0.000000 0.000000
												CHANNELS 3 Xrotation Yrotation Zrotation
												End Site
												{
													OFFSET 0 0 0
												}
											}
										}
									}
								}
							}
						}
					}
				}
			}
		}
	}
}
MOTION
Frames: 5
Frame Time: 0.03333333
-0.951255 77.715233 1.361057 0.000000 0.000000 0.000000 6.747118 -52.966041 7.548186 -74.263199 16.339747 40.739206 53.053983 -17.683151 5.727547 9.064592 1.984589 -10.750335 -1.746063 -6.359601 0.140174 0.000000 0.000000 0.000000 4.237413 -52.613285 7.179198 -32.466966 4.042511 -27.710767 52.886462 8.923858 -7.749105 -24.342458 -6.222511 25.746186 1.447046 5.004962 2.700952 0.000000 0.000000 0.000000 8.816381 -50.623491 8.691848 12.595264 2.257731 -2.631274 4.456353 6.571217 -3.658952 0.471208 -2.585832 1.220254 0.000000 0.000000 0.000000 -4.382774 6.078002 -2.011872 0.803304 10.555009 -0.776998 -4.543963 23.846636 -1.810960 0.000000 0.000000 0.000000 -5.708585 6.173097 -2.372988 -1.228918 -10.151973 -4.183270 4.180252 -1.001066 -0.364898 -13.603105 1.848903 -43.605594 -22.837000 -27.667180 -15.688489 0.000000 0.000000 0.000000 -5.145820 5.793346 -2.442876 -2.393768 13.493976 0.608218 -2.479460 -4.457734 2.336516 1.021275 -14.155923 58.670089 -10.577412 44.533031 18.552988 0.000000 0.000000 0.000000 
-0.876064 77.717522 1.528660 0.000000 0.000000 0.000000 7.061539 -53.300204 7.578847 -74.018302 16.194833 40.964975 53.619078 -17.571908 5.723301 7.738463 2.061460 -10.018732 -2.077512 -6.356572 0.278000 0.000000 0.000000 0.000000 4.638069 -52.341918 7.152786 -32.620201 4.740379 -27.536268 52.474513 9.141518 -7.825145 -24.147523 -5.836240 26.124804 1.736274 5.200809 2.595218 0.000000 0.000000 0.000000 9.137711 -51.049257 8.778473 12.555232 2.285625 -2.752859 4.521568 6.582631 -3.727419 0.530981 -2.402419 1.305781 0.000000 0.000000 0.000000 -4.389229 6.109047 -2.058284 0.490513 10.500851 -0.803529 -4.644540 23.919920 -1.775000 0.000000 0.000000 0.000000 -5.532786 6.211772 -2.422693 -1.227350 -10.231126 -4.118374 4.058308 -0.947611 -0.123232 -13.550861 1.938138 -43.315789 -22.818578 -27.521385 -15.720104 0.000000 0.000000 0.000000 -5.135731 5.800071 -2.575459 -2.284016 14.227347 0.844126 -1.904982 -4.841031 1.477788 1.256932 -14.521542 56.400202 -7.663572 40.845976 16.982637 0.000000 0.000000 0.000000 
-0.721898 77.664337 1.654301 0.000000 0.000000 0.000000 7.925251 -53.853740 7.986788 -73.262296 16.176391 41.347780 53.773451 -17.566953 5.477137 6.188600 2.220855 -9.870115 -2.498061 -6.305602 0.811001 0.000000 0.000000 0.000000 5.196011 -52.265584 7.308243 -33.629714 5.343461 -27.373108 52.319338 9.223580 -7.869694 -23.220234 -5.145086 26.928642 1.836087 5.218526 2.705929 0.000000 0.000000 0.000000 9.589966 -51.521637 8.982403 12.496609 2.361808 -2.883968 4.695348 6.599600 -3.861771 0.377549 -2.217950 1.355491 0.000000 0.000000 0.000000 -4.283094 6.134995 -2.187148 0.096485 10.452772 -0.905206 -4.662355 23.982307 -1.836981 0.000000 0.000000 0.000000 -5.262135 6.216192 -2.589361 -1.227569 -10.092893 -4.013260 3.954039 -0.837970 0.067537 -13.957048 2.082851 -42.808504 -22.641734 -27.379751 -15.599148 0.000000 0.000000 0.000000 -5.069659 5.816655 -2.804126 -2.329788 15.007235 1.124039 -1.694311 -4.834690 0.731183 2.088091 -15.287763 54.414604 -1.666717 37.320785 13.549249 0.000000 0.000000 0.000000 
-0.613418 77.521172 1.675949 0.000000 0.000000 0.000000 8.933433 -54.383284 8.570725 -72.430618 16.222671 41.872126 53.373106 -17.758949 5.113784 5.405500 2.334098 -10.452894 -2.875670 -6.195375 1.454932 0.000000 0.000000 0.000000 5.739718 -52.277250 7.604228 -35.122134 5.722458 -27.330285 52.929308 8.905367 -7.866223 -22.161440 -4.497225 27.873042 1.763488 5.011033 3.017030 0.000000 0.000000 0.000000 9.979653 -51.753829 9.259057 12.417815 2.467378 -2.999311 4.921544 6.593249 -4.057868 0.223330 -2.367567 1.305905 0.000000 0.000000 0.000000 -4.073089 6.119661 -2.397901 -0.309975 10.405027 -1.062055 -4.567634 23.983893 -2.004250 0.000000 0.000000 0.000000 -4.981527 6.172531 -2.853657 -1.228735 -9.707276 -3.810678 3.844440 -0.939175 0.234814 -14.825040 2.128926 -42.266150 -22.285813 -27.242653 -15.351834 0.000000 0.000000 0.000000 -4.960077 5.797132 -3.078458 -2.492984 15.781096 1.545204 -1.610899 -4.895217 0.244580 3.540394 -15.646027 52.964354 5.865792 34.857604 9.366866 0.000000 0.000000 0.000000 
-0.594405 77.355461 1.584377 0.000000 0.000000 0.000000 9.579590 -54.403232 8.993403 -71.817868 16.255700 42.431614 52.286891 -18.063221 4.686344 6.098273 2.129559 -11.550441 -3.272998 -6.036068 1.914203 0.000000 0.000000 0.000000 5.919939 -52.126614 7.803122 -36.400387 5.664846 -27.457731 54.212243 7.978248 -7.814037 -21.435343 -4.290516 28.726003 1.451185 4.567414 3.345733 0.000000 0.000000 0.000000 10.000067 -51.355584 9.411805 12.334394 2.546117 -3.088331 5.155944 6.549773 -4.291833 0.042671 -2.834502 1.123733 0.000000 0.000000 0.000000 -3.838718 6.029269 -2.672984 -0.654714 10.326130 -1.269202 -4.398737 23.827853 -2.265028 0.000000 0.000000 0.000000 -4.747586 6.081124 -3.182498 -1.214400 -9.140735 -3.502490 3.716147 -1.200839 0.558216 -15.984541 1.912805 -41.947306 -21.773239 -27.257000 -15.047779 0.000000 0.000000 0.000000 -4.833117 5.718478 -3.346677 -2.640761 16.552928 2.185727 -1.793811 -5.141331 0.132070 5.506260 -15.001616 52.062345 13.834269 33.509270 4.928975 0.000000 0.000000 0.000000 
